<svg xmlns="http://www.w3.org/2000/svg" viewBox="0 0 113.39 113.39"><defs><style>.cls-1{fill:none;}</style></defs><g id="レイヤー_2" data-name="レイヤー 2"><g id="name"><rect class="cls-1" width="113.39" height="113.39" transform="translate(0 113.39) rotate(-90)"/><path d="M93.55,42.52,79.37,31.18V17.79c0-4.1-2.9-6.44-5.76-6.44l-1.68,2.8c3.31.29,4.34,4.1,1.72,5.7H39.74c-2.62-1.6-1.6-5.42,1.72-5.71l-1.67-2.8c-2.87,0-5.77,2.34-5.77,6.44l0,13.4L19.83,42.51Z"/><path d="M85,75.12H69.47l7.61,7.7h-4L56.69,66.21,40.28,82.82h-4l7.6-7.7H28.33l-17,17h90.73Z"/><path d="M56.69,62.18l8.58,8.69H96.38l-17-16.69V46.94H34v7.21L17,70.87h31.1Z"/></g></g></svg>