<svg xmlns="http://www.w3.org/2000/svg" viewBox="0 0 85.04 85.04"><defs><style>.cls-1{fill:none;}</style></defs><g id="レイヤー_2" data-name="レイヤー 2"><g id="レイヤー_1-2" data-name="レイヤー 1"><g id="レイヤー_2-2" data-name="レイヤー 2"><g id="design"><polygon points="7.3 12.32 14.89 29.81 14.88 10.64 7.3 12.32"/><path d="M52.1,41.09c0,10.24,5.42,16.19,13.9,18.43V42.45A17,17,0,0,0,52.1,25.8Z"/><path d="M23.36,59.51c8.46-2.25,13.85-8.11,13.85-18.42V25.5H17V46.79h6.35Z"/><path d="M63.89,72.29a18,18,0,0,0-.08-2.11C63.3,55,49.56,59.77,50,41.09V25.64l-5.36,6.21-5.25-6.21V41.09C39.75,59.75,26,55,25.5,70.18c0,.68-.07,1.37-.08,2.11H19.13v6.37h51V72.29Z"/><circle cx="44.62" cy="14.39" r="7.97"/><rect class="cls-1" width="85.04" height="85.04"/></g></g></g></g></svg>