<svg xmlns="http://www.w3.org/2000/svg" viewBox="0 0 113.39 113.39"><defs><style>.cls-1{fill:none;}</style></defs><g id="レイヤー_2" data-name="レイヤー 2"><g id="object"><rect class="cls-1" width="113.39" height="113.39" transform="translate(0 113.39) rotate(-90)"/><polygon points="102.05 45.35 87.78 36.49 85.04 25.51 28.35 25.51 25.61 36.45 11.34 45.35 102.05 45.35"/><line class="cls-1" x1="46.77" y1="51.02" x2="46.77" y2="51.03"/><path d="M41.16,51H17L5.69,58.1H31.11a8.53,8.53,0,0,0,6.4-2.9Z"/><path d="M72.24,51H96.39l11.32,7.07H82.29a8.53,8.53,0,0,1-6.4-2.9Z"/><path d="M14.17,62.35V73.7H2.84V85H25.51V73.53h4.25V85H44.88V73.53h4.25V85H64.25V73.53H68.5V85H83.62V73.53h4.25V85h22.68V73.7H99.21V62.35H80.39a8.5,8.5,0,0,1-6.4-2.9l-4.84-5.52A8.49,8.49,0,0,0,62.76,51H50.63a8.5,8.5,0,0,0-6.4,2.9l-4.84,5.53a8.52,8.52,0,0,1-6.4,2.9Z"/></g></g></svg>